<svg version="1.1" id="Layer_1" xmlns="http://www.w3.org/2000/svg" xmlns:xlink="http://www.w3.org/1999/xlink" x="0px" y="0px"
	 width="100%" viewBox="0 0 480 416" enable-background="new 0 0 480 416" xml:space="preserve">
<path fill="#000000" opacity="1.000000" stroke="none" 
	d="
M118.796600,176.814758 
	C123.113647,165.140976 126.548180,159.934677 131.414566,156.334030 
	C108.945999,206.008713 90.962471,258.698883 82.529671,315.251373 
	C80.019310,311.436829 80.873718,308.036743 81.253624,304.780151 
	C84.592865,276.156403 93.393631,248.914917 102.397949,221.730255 
	C107.371109,206.715927 112.685593,191.824554 118.796600,176.814758 
z"/>
<path fill="#000000" opacity="1.000000" stroke="none" 
	d="
M283.038696,267.982910 
	C273.127045,257.268677 273.348267,242.833679 283.307861,233.325943 
	C292.301880,224.739990 307.462036,224.823151 316.420624,233.507645 
	C325.735748,242.537766 326.169800,257.849548 317.380463,267.366669 
	C308.391846,277.099579 294.119049,277.463135 283.038696,267.982910 
M314.883240,264.345917 
	C315.639771,263.255188 316.464905,262.205261 317.142090,261.067322 
	C322.938812,251.326523 319.468475,238.632889 309.508606,233.058838 
	C299.755615,227.600555 287.483643,231.180771 282.035797,241.073715 
	C277.167053,249.915085 279.224457,260.768555 286.890808,266.685303 
	C295.696167,273.481140 305.574799,272.830444 314.883240,264.345917 
z"/>
<path fill="#000000" opacity="1.000000" stroke="none" 
	d="
M188.977020,201.757202 
	C179.753113,214.031235 165.236237,216.545349 154.240738,208.058228 
	C143.575912,199.826340 141.534195,184.845779 149.638367,174.289398 
	C156.902863,164.826767 170.271439,162.119019 180.575134,168.023254 
	C190.981033,173.986099 195.385788,186.688080 190.890869,197.842972 
	C190.395447,199.072479 189.749115,200.241196 188.977020,201.757202 
M174.037445,169.370987 
	C168.421387,167.442322 163.176361,168.672958 158.234009,171.469620 
	C149.949997,176.157150 146.097672,186.882950 149.393738,195.674515 
	C153.041626,205.404480 162.662704,210.936844 172.321014,208.858276 
	C181.325836,206.920349 187.882050,200.051544 188.712845,191.684967 
	C189.753738,181.202637 185.077881,173.759979 174.037445,169.370987 
z"/>
<path fill="#000000" opacity="1.000000" stroke="none" 
	d="
M154.001694,331.984406 
	C147.929214,339.924896 142.293793,347.729584 135.834518,354.948761 
	C120.537338,372.045532 89.007416,363.504517 83.773842,341.483948 
	C82.159294,334.690613 80.777290,327.982513 82.023087,320.386993 
	C83.855148,322.028931 83.883705,323.682098 83.986687,325.221558 
	C84.254883,329.230652 85.186844,333.105194 86.153305,336.979889 
	C90.306335,353.629852 99.284477,360.588745 116.358635,360.752991 
	C124.520126,360.831482 130.114609,356.277893 135.195435,350.865143 
	C142.264114,343.334778 148.161652,334.842407 154.392075,326.628296 
	C156.566269,323.761871 158.354538,320.508942 162.421310,318.431061 
	C161.030823,324.217499 156.564835,327.320343 154.001694,331.984406 
z"/>
<path fill="#000000" opacity="1.000000" stroke="none" 
	d="
M176.826660,71.386505 
	C180.231552,64.211617 184.270157,61.860073 191.087646,62.728336 
	C196.731232,63.447098 200.507034,67.479172 201.596664,74.278137 
	C202.494141,79.878136 202.185455,85.532249 201.813934,91.161339 
	C201.728241,92.459663 201.446045,93.889740 200.791611,94.981979 
	C196.938522,101.412903 190.510361,99.131317 184.990021,99.163391 
	C180.850403,99.187439 177.180420,97.471291 176.400360,92.519440 
	C175.307632,85.582794 175.295502,78.676163 176.826660,71.386505 
M197.643021,91.662964 
	C197.714188,86.016289 197.990005,80.362503 197.794312,74.725090 
	C197.625732,69.868645 194.638947,66.813683 190.252502,66.250534 
	C185.311569,65.616188 182.036560,67.750732 180.345367,72.557869 
	C178.748138,77.097992 179.551132,81.779404 179.386124,86.402382 
	C179.259964,89.937683 179.068573,93.575050 183.257782,95.214752 
	C187.451691,96.856300 194.775818,95.413788 197.643021,91.662964 
z"/>
<path fill="#000000" opacity="1.000000" stroke="none" 
	d="
M306.750885,87.762566 
	C306.896423,81.995819 306.252045,76.653374 307.758392,71.435394 
	C309.333862,65.978081 314.294556,62.404972 320.145233,62.584618 
	C326.118439,62.768032 331.085571,66.446899 332.142059,71.953758 
	C333.431976,78.677254 333.618317,85.468040 332.443726,92.269531 
	C332.148956,93.976494 331.770416,95.622162 330.381653,96.658691 
	C324.881439,100.763885 318.711060,99.765915 312.707062,98.458595 
	C307.318420,97.285255 306.963562,92.684715 306.750885,87.762566 
M328.732788,73.253365 
	C326.632050,67.647652 323.508942,65.575378 318.268097,66.309761 
	C314.088257,66.895477 310.771851,70.753181 310.439148,76.008797 
	C310.166077,80.322639 310.330078,84.666542 310.362335,88.996658 
	C310.395782,93.493530 312.663086,95.742752 317.211060,95.634987 
	C319.042328,95.591591 320.875793,95.594498 322.707428,95.626213 
	C326.808167,95.697227 328.929626,93.766769 328.907684,89.602798 
	C328.880463,84.440674 328.863342,79.278496 328.732788,73.253365 
z"/>
<path fill="#000000" opacity="1.000000" stroke="none" 
	d="
M344.597229,320.400574 
	C340.378632,315.676575 336.692200,310.986023 332.067596,307.074463 
	C327.647766,303.336121 322.683075,300.517883 316.482025,297.137695 
	C321.352875,296.228699 324.157104,297.945831 326.860107,299.578857 
	C339.286346,307.086426 347.581146,318.593536 356.032928,329.942505 
	C363.273895,339.665649 369.911377,349.894409 379.794342,357.362885 
	C382.211304,359.189331 385.062561,360.121338 388.016357,362.071198 
	C385.599548,363.620392 383.672852,362.674988 381.825562,361.884247 
	C374.179871,358.611603 369.067413,352.337036 364.074005,346.154053 
	C357.389618,337.877228 351.216187,329.187714 344.597229,320.400574 
z"/>
<path fill="#000000" opacity="1.000000" stroke="none" 
	d="
M416.845825,259.291321 
	C420.495056,274.241211 425.293701,288.573059 424.668152,303.939514 
	C417.252289,266.616852 405.503235,230.550323 393.846222,194.429962 
	C403.360687,215.267715 410.060516,237.078430 416.845825,259.291321 
z"/>
<path fill="#000000" opacity="1.000000" stroke="none" 
	d="
M175.318558,108.816605 
	C181.760574,108.832718 187.744537,108.714615 193.717453,108.919060 
	C198.858948,109.095032 201.750519,111.750053 201.839066,115.862183 
	C201.929688,120.072029 198.750839,123.023651 193.503021,123.174202 
	C187.528519,123.345596 181.544937,123.283890 175.566574,123.214127 
	C169.543503,123.143837 165.924881,120.541206 165.704895,116.299713 
	C165.470459,111.778893 168.218521,109.533379 175.318558,108.816605 
M173.302505,113.054817 
	C171.452957,113.488556 169.530441,114.117188 169.806213,116.432983 
	C170.026031,118.278984 171.751083,119.222885 173.447159,119.265190 
	C180.046509,119.429802 186.653183,119.514084 193.251740,119.373695 
	C195.409332,119.327782 197.806015,118.525925 197.565231,115.656738 
	C197.339737,112.969872 194.972610,113.025780 192.990005,113.007820 
	C186.707748,112.950935 180.424820,112.970139 173.302505,113.054817 
z"/>
<path fill="#000000" opacity="1.000000" stroke="none" 
	d="
M321.081299,108.827332 
	C326.045929,108.838181 330.530762,108.703072 335.000885,108.900803 
	C339.952484,109.119835 343.214996,112.047577 343.191895,115.865219 
	C343.167267,119.932602 339.735321,123.063789 334.726715,123.182213 
	C328.427460,123.331169 322.118408,123.337402 315.819946,123.168053 
	C310.176605,123.016304 306.885590,120.139740 306.911133,115.812363 
	C306.935303,111.716492 310.093536,109.174324 315.619873,108.872993 
	C317.274139,108.782784 318.936432,108.839012 321.081299,108.827332 
M330.075684,112.954926 
	C325.448578,112.853363 320.820801,112.774788 316.194641,112.640671 
	C313.846313,112.572586 311.553192,113.036392 311.315338,115.686577 
	C311.039307,118.762215 313.516815,119.454262 315.998169,119.491730 
	C321.785370,119.579124 327.574493,119.574173 333.362579,119.549629 
	C335.954926,119.538643 338.989685,119.118881 338.950592,116.017090 
	C338.903870,112.309029 335.618164,112.697746 332.933777,112.880112 
	C332.274261,112.924919 331.611938,112.928604 330.075684,112.954926 
z"/>
<path fill="#000000" opacity="1.000000" stroke="none" 
	d="
M190.166046,260.715942 
	C186.904816,254.929245 186.970917,249.254547 188.880493,243.504822 
	C189.460999,241.756897 190.324295,240.055191 192.423355,239.668655 
	C197.202850,238.788498 200.285675,241.537094 203.054352,244.806229 
	C205.685394,247.912827 207.176193,251.097412 204.638382,255.185837 
	C200.017242,262.630493 195.799393,264.490051 190.166046,260.715942 
M193.166153,257.988312 
	C196.472061,259.576569 197.436935,256.485138 199.045761,254.918304 
	C200.989166,253.025620 202.833633,250.825989 200.431900,248.059555 
	C198.739182,246.109818 197.152573,242.968155 194.311127,243.693451 
	C191.084518,244.517044 191.348892,248.016617 191.323898,250.816162 
	C191.303360,253.116531 191.030807,255.493851 193.166153,257.988312 
z"/>
<path fill="#000000" opacity="1.000000" stroke="none" 
	d="
M326.597839,133.885406 
	C348.267578,133.885498 365.969727,141.416595 379.124176,158.534851 
	C380.032928,159.717422 380.930176,160.952438 381.568756,162.289169 
	C382.639374,164.530304 383.497284,166.873016 384.077728,169.682480 
	C370.445740,146.303268 349.223267,136.647141 323.148468,136.054596 
	C323.755402,133.633499 325.143311,134.122574 326.597839,133.885406 
z"/>
<path fill="#000000" opacity="1.000000" stroke="none" 
	d="
M213.719116,256.216431 
	C216.610901,257.703125 218.515488,259.822296 220.382858,261.915192 
	C224.165848,266.155090 223.245575,270.434723 218.054092,272.600311 
	C213.437332,274.526123 208.652328,274.502747 203.999466,272.762970 
	C198.979218,270.885834 197.819733,266.976776 200.709381,262.465454 
	C203.955750,257.397217 208.526581,255.079391 213.719116,256.216431 
M209.130127,270.294403 
	C212.539047,270.796204 216.308716,270.660126 218.074005,267.681335 
	C219.802704,264.764282 215.925980,263.397186 214.422928,261.437653 
	C213.128494,259.750183 211.255768,258.588684 209.293121,260.208771 
	C207.048309,262.061768 203.928619,263.709808 203.597855,266.715179 
	C203.309006,269.339844 206.436447,269.385071 209.130127,270.294403 
z"/>
<path fill="#000000" opacity="1.000000" stroke="none" 
	d="
M363.236206,187.212189 
	C363.510681,190.170013 362.969940,192.581375 362.155182,194.940918 
	C360.158600,200.723083 355.755981,202.117462 351.024567,198.352295 
	C348.958618,196.708237 347.148865,194.762131 345.792145,192.432877 
	C343.858276,189.112747 344.049683,186.156555 347.085114,183.584290 
	C347.716095,183.049591 348.332367,182.496643 348.939728,181.935135 
	C351.548706,179.523041 353.741669,175.753769 358.027344,177.292984 
	C362.228546,178.801865 362.458496,183.069275 363.236206,187.212189 
M353.487335,194.873474 
	C355.229950,196.072510 357.134552,197.256882 358.369263,194.477249 
	C360.127563,190.519043 360.267059,186.437332 358.284393,182.460922 
	C357.456970,180.801453 356.243347,180.531113 354.609070,181.538300 
	C348.392883,185.369339 347.903625,189.086029 353.487335,194.873474 
z"/>
<path fill="#000000" opacity="1.000000" stroke="none" 
	d="
M345.750305,181.801239 
	C342.860535,184.063431 340.011169,185.734406 336.866272,183.466171 
	C332.983276,180.665588 328.931793,177.774002 328.010284,172.605530 
	C327.627991,170.461349 328.988922,168.862930 330.949615,167.847061 
	C336.507843,164.967239 342.173248,165.050262 347.809113,167.416946 
	C351.689514,169.046432 352.134033,172.127274 350.608185,175.687912 
	C349.602814,178.033966 347.685547,179.705490 345.750305,181.801239 
M337.215027,169.490891 
	C335.466919,170.277420 333.221771,170.110397 332.064301,172.143036 
	C332.272003,174.521194 333.958893,175.950897 335.485596,177.424652 
	C337.501495,179.370605 339.859070,180.927658 342.511719,178.812119 
	C344.623260,177.128036 348.035919,175.494156 347.202148,172.423019 
	C346.374115,169.373047 342.824158,169.464600 339.992615,169.364639 
	C339.330627,169.341263 338.666077,169.390533 337.215027,169.490891 
z"/>
<path fill="#000000" opacity="1.000000" stroke="none" 
	d="
M214.724335,244.774384 
	C208.444473,247.347412 199.239594,241.505035 198.765900,235.008682 
	C198.537094,231.870667 200.392822,229.954468 203.019791,228.980301 
	C207.999542,227.133698 213.078918,227.044983 218.018265,229.240601 
	C222.660294,231.304031 223.532486,234.763489 220.364914,238.702682 
	C218.709732,240.761032 216.803741,242.617661 214.724335,244.774384 
M203.452271,233.310074 
	C202.367203,238.153748 206.450577,239.855957 209.318771,241.200043 
	C213.141983,242.991653 214.915146,238.659332 217.215714,236.564850 
	C219.170563,234.785095 218.746780,233.072525 215.983978,232.253922 
	C211.890320,231.040970 207.862366,230.615677 203.452271,233.310074 
z"/>
<path fill="#000000" opacity="1.000000" stroke="none" 
	d="
M351.672546,207.369324 
	C346.858978,212.937881 335.754730,213.877502 330.714630,209.452713 
	C329.852600,208.695892 329.026672,207.899963 328.794647,206.654648 
	C327.755829,201.080063 332.288940,198.824417 335.414642,195.909729 
	C337.823578,193.663467 340.958862,192.615753 343.999817,194.931091 
	C348.023254,197.994492 352.664917,200.769882 351.672546,207.369324 
M340.473419,197.527725 
	C338.129303,197.883163 336.783203,199.692078 335.273682,201.199997 
	C331.270264,205.199158 331.641174,206.610291 337.050812,208.018845 
	C338.316742,208.348480 339.750458,208.753723 340.950165,208.467331 
	C343.419800,207.877716 346.934601,208.624741 347.903259,205.606964 
	C348.730408,203.030075 345.449097,202.034241 344.134674,200.237946 
	C343.376068,199.201157 342.146912,198.508698 340.473419,197.527725 
z"/>
<path fill="#000000" opacity="1.000000" stroke="none" 
	d="
M228.659576,239.052399 
	C234.608322,243.301041 235.522095,256.535156 230.560623,261.029938 
	C229.656540,261.848969 228.616928,262.343292 227.420776,262.305756 
	C221.567322,262.122131 218.973145,257.336456 216.247604,253.476807 
	C214.006088,250.302567 215.798492,246.796188 218.720490,244.285843 
	C221.543518,241.860489 223.793030,238.390488 228.659576,239.052399 
M230.228394,251.262543 
	C230.112213,250.117142 230.094254,248.950989 229.857880,247.830963 
	C229.457718,245.934814 229.510757,243.496902 227.181931,242.941681 
	C225.143173,242.455627 224.102875,244.538269 222.787659,245.730804 
	C222.298599,246.174225 221.870117,246.687622 221.436829,247.188828 
	C219.741364,249.150085 219.127411,251.287827 220.877472,253.479645 
	C222.507339,255.520920 224.099716,258.367310 226.908142,258.107635 
	C229.716110,257.848083 229.406616,254.656204 229.962036,252.486649 
	C230.003143,252.326096 230.035416,252.163269 230.228394,251.262543 
z"/>
<path fill="#000000" opacity="1.000000" stroke="none" 
	d="
M334.708710,191.682953 
	C332.775238,194.871078 330.592499,197.418655 327.872559,199.369446 
	C323.745697,202.329285 319.664917,200.876572 318.091675,196.042145 
	C316.555176,191.320633 316.234558,186.579483 318.133453,181.864807 
	C319.987640,177.261108 324.584564,175.840240 328.097107,179.320694 
	C331.397705,182.591125 336.984558,184.934402 334.708710,191.682953 
M329.108490,192.704453 
	C332.004822,188.843826 331.358215,186.229767 326.690399,182.592026 
	C325.062408,181.323273 323.528137,180.737793 321.953094,182.610321 
	C319.768097,185.207962 319.676483,194.050064 322.157562,195.836670 
	C325.334381,198.124268 326.712555,194.741837 329.108490,192.704453 
z"/>
<path fill="#000000" opacity="1.000000" stroke="none" 
	d="
M279.483704,198.835938 
	C275.125000,195.520798 273.775970,191.533844 275.655792,186.783127 
	C277.415833,182.335129 281.190765,180.650681 285.647400,181.003372 
	C290.057526,181.352371 292.883026,184.092560 293.984192,188.389542 
	C294.938904,192.115082 293.775116,195.370804 290.947479,197.802643 
	C287.620636,200.663849 283.800720,201.025757 279.483704,198.835938 
M278.951385,192.588318 
	C280.757355,195.867905 283.262756,197.825562 287.036011,195.921448 
	C289.755402,194.549118 291.449158,192.179626 290.237396,188.975540 
	C289.166595,186.144135 286.920837,183.959000 283.794678,184.660538 
	C280.309021,185.442734 278.022736,187.845108 278.951385,192.588318 
z"/>
<path fill="#000000" opacity="1.000000" stroke="none" 
	d="
M217.485519,185.694733 
	C221.402420,181.054825 225.652786,179.726746 229.878937,181.798813 
	C234.062622,183.850052 235.900131,187.328552 235.269180,191.974075 
	C234.628098,196.694336 231.689850,199.343277 227.174423,200.146759 
	C219.581070,201.497971 214.490082,194.153992 217.485519,185.694733 
M230.697098,186.970749 
	C228.604202,184.578506 226.170197,183.697006 223.157547,185.219025 
	C221.012756,186.302567 219.919479,188.173798 219.804245,190.419189 
	C219.672455,192.987610 221.198242,194.793045 223.389740,195.971329 
	C225.540009,197.127426 227.642120,196.716095 229.448868,195.257996 
	C232.002640,193.197037 232.211716,190.508072 230.697098,186.970749 
z"/>
<path fill="#000000" opacity="1.000000" stroke="none" 
	d="
M140.776794,146.620178 
	C147.396210,141.854279 154.200317,138.354752 162.187057,137.527542 
	C153.681900,141.636429 145.241547,145.838257 137.008041,152.003632 
	C137.651657,149.042435 139.410446,148.196976 140.776794,146.620178 
z"/>
<path fill="#000000" opacity="1.000000" stroke="none" 
	d="
M349.781372,215.770218 
	C355.417145,213.546936 359.715851,209.983200 364.051971,205.814560 
	C362.231171,213.056351 351.647400,219.738907 345.222504,218.025345 
	C346.139771,216.286118 348.089722,216.664658 349.781372,215.770218 
z"/>
<path fill="#000000" opacity="1.000000" stroke="none" 
	d="
M364.456146,170.555298 
	C365.834137,172.580566 367.600952,174.018021 367.126190,176.856964 
	C362.814514,169.664749 356.772034,164.486069 349.355286,160.832306 
	C356.070190,161.327377 360.258392,165.643890 364.456146,170.555298 
z"/>
</svg>